{
    "asset" : {
        "generator" : "Khronos glTF Blender I/O v3.3.27",
        "version" : "2.0"
    },
    "scene" : 0,
    "scenes" : [
        {
            "name" : "Scene",
            "nodes" : [
                0,
                1,
                2,
                3,
                4
            ]
        }
    ],
    "nodes" : [
        {
            "mesh" : 0,
            "name" : "Handle2"
        },
        {
            "mesh" : 1,
            "name" : "LighterStick"
        },
        {
            "mesh" : 2,
            "name" : "Handle1"
        },
        {
            "mesh" : 3,
            "name" : "Support"
        },
        {
            "mesh" : 4,
            "name" : "Button"
        }
    ],
    "meshes" : [
        {
            "name" : "1",
            "primitives" : [
                {
                    "attributes" : {
                        "POSITION" : 0,
                        "NORMAL" : 1
                    },
                    "indices" : 2
                }
            ]
        },
        {
            "name" : "2",
            "primitives" : [
                {
                    "attributes" : {
                        "POSITION" : 3,
                        "NORMAL" : 4
                    },
                    "indices" : 5
                }
            ]
        },
        {
            "name" : "3",
            "primitives" : [
                {
                    "attributes" : {
                        "POSITION" : 6,
                        "NORMAL" : 7
                    },
                    "indices" : 8
                }
            ]
        },
        {
            "name" : "4",
            "primitives" : [
                {
                    "attributes" : {
                        "POSITION" : 9,
                        "NORMAL" : 10
                    },
                    "indices" : 11
                }
            ]
        },
        {
            "name" : "5",
            "primitives" : [
                {
                    "attributes" : {
                        "POSITION" : 12,
                        "NORMAL" : 13
                    },
                    "indices" : 14
                }
            ]
        }
    ],
    "accessors" : [
        {
            "bufferView" : 0,
            "componentType" : 5126,
            "count" : 6006,
            "max" : [
                14.362099647521973,
                1.5,
                0.13997800648212433
            ],
            "min" : [
                0,
                -1.1145600183226634e-05,
                -3.934920072555542
            ],
            "type" : "VEC3"
        },
        {
            "bufferView" : 1,
            "componentType" : 5126,
            "count" : 6006,
            "type" : "VEC3"
        },
        {
            "bufferView" : 2,
            "componentType" : 5123,
            "count" : 6402,
            "type" : "SCALAR"
        },
        {
            "bufferView" : 3,
            "componentType" : 5126,
            "count" : 7391,
            "max" : [
                27.762100219726562,
                0.5,
                -0.16002200543880463
            ],
            "min" : [
                15.862099647521973,
                -0.5,
                -1.1600199937820435
            ],
            "type" : "VEC3"
        },
        {
            "bufferView" : 4,
            "componentType" : 5126,
            "count" : 7391,
            "type" : "VEC3"
        },
        {
            "bufferView" : 5,
            "componentType" : 5123,
            "count" : 7488,
            "type" : "SCALAR"
        },
        {
            "bufferView" : 6,
            "componentType" : 5126,
            "count" : 5007,
            "max" : [
                14.362099647521973,
                1.1146200449729804e-05,
                0.13997800648212433
            ],
            "min" : [
                0,
                -1.399999976158142,
                -3.923069953918457
            ],
            "type" : "VEC3"
        },
        {
            "bufferView" : 7,
            "componentType" : 5126,
            "count" : 5007,
            "type" : "VEC3"
        },
        {
            "bufferView" : 8,
            "componentType" : 5123,
            "count" : 5190,
            "type" : "SCALAR"
        },
        {
            "bufferView" : 9,
            "componentType" : 5126,
            "count" : 1378,
            "max" : [
                15.662099838256836,
                0.75,
                0.08997830003499985
            ],
            "min" : [
                14.362099647521973,
                -0.75,
                -1.4100199937820435
            ],
            "type" : "VEC3"
        },
        {
            "bufferView" : 10,
            "componentType" : 5126,
            "count" : 1378,
            "type" : "VEC3"
        },
        {
            "bufferView" : 11,
            "componentType" : 5123,
            "count" : 1536,
            "type" : "SCALAR"
        },
        {
            "bufferView" : 12,
            "componentType" : 5126,
            "count" : 490,
            "max" : [
                10.888099670410156,
                0.75,
                -0.8600220084190369
            ],
            "min" : [
                8.887200355529785,
                -0.75,
                -2.926769971847534
            ],
            "type" : "VEC3"
        },
        {
            "bufferView" : 13,
            "componentType" : 5126,
            "count" : 490,
            "type" : "VEC3"
        },
        {
            "bufferView" : 14,
            "componentType" : 5123,
            "count" : 684,
            "type" : "SCALAR"
        }
    ],
    "bufferViews" : [
        {
            "buffer" : 0,
            "byteLength" : 72072,
            "byteOffset" : 0,
            "target" : 34962
        },
        {
            "buffer" : 0,
            "byteLength" : 72072,
            "byteOffset" : 72072,
            "target" : 34962
        },
        {
            "buffer" : 0,
            "byteLength" : 12804,
            "byteOffset" : 144144,
            "target" : 34963
        },
        {
            "buffer" : 0,
            "byteLength" : 88692,
            "byteOffset" : 156948,
            "target" : 34962
        },
        {
            "buffer" : 0,
            "byteLength" : 88692,
            "byteOffset" : 245640,
            "target" : 34962
        },
        {
            "buffer" : 0,
            "byteLength" : 14976,
            "byteOffset" : 334332,
            "target" : 34963
        },
        {
            "buffer" : 0,
            "byteLength" : 60084,
            "byteOffset" : 349308,
            "target" : 34962
        },
        {
            "buffer" : 0,
            "byteLength" : 60084,
            "byteOffset" : 409392,
            "target" : 34962
        },
        {
            "buffer" : 0,
            "byteLength" : 10380,
            "byteOffset" : 469476,
            "target" : 34963
        },
        {
            "buffer" : 0,
            "byteLength" : 16536,
            "byteOffset" : 479856,
            "target" : 34962
        },
        {
            "buffer" : 0,
            "byteLength" : 16536,
            "byteOffset" : 496392,
            "target" : 34962
        },
        {
            "buffer" : 0,
            "byteLength" : 3072,
            "byteOffset" : 512928,
            "target" : 34963
        },
        {
            "buffer" : 0,
            "byteLength" : 5880,
            "byteOffset" : 516000,
            "target" : 34962
        },
        {
            "buffer" : 0,
            "byteLength" : 5880,
            "byteOffset" : 521880,
            "target" : 34962
        },
        {
            "buffer" : 0,
            "byteLength" : 1368,
            "byteOffset" : 527760,
            "target" : 34963
        }
    ],
    "buffers" : [
        {
            "byteLength" : 529128,
            "uri" : "data:application/octet-stream;base64,"
        }
    ]
}
