{
    "asset" : {
        "generator" : "Khronos glTF Blender I/O v3.2.40",
        "version" : "2.0"
    },
    "scene" : 0,
    "scenes" : [
        {
            "name" : "Scene",
            "nodes" : [
                0
            ]
        }
    ],
    "nodes" : [
        {
            "mesh" : 0,
            "name" : "Cylinder.016",
            "rotation" : [
                -0.043619390577077866,
                0,
                0,
                0.9990482330322266
            ],
            "scale" : [
                0.524151623249054,
                0.9179329872131348,
                0.524151623249054
            ]
        }
    ],
    "materials" : [
        {
            "doubleSided" : true,
            "name" : "Metall Texture.002",
            "pbrMetallicRoughness" : {
                "baseColorTexture" : {
                    "index" : 0
                },
                "metallicRoughnessTexture" : {
                    "index" : 1
                },
                "roughnessFactor" : 0.6000000238418579
            }
        }
    ],
    "meshes" : [
        {
            "name" : "Cylinder.046",
            "primitives" : [
                {
                    "attributes" : {
                        "POSITION" : 0,
                        "NORMAL" : 1,
                        "TEXCOORD_0" : 2
                    },
                    "indices" : 3,
                    "material" : 0
                }
            ]
        }
    ],
    "textures" : [
        {
            "sampler" : 0,
            "source" : 0
        },
        {
            "sampler" : 0,
            "source" : 1
        }
    ],
    "images" : [
        {
            "bufferView" : 4,
            "mimeType" : "image/jpeg",
            "name" : "Image_0"
        },
        {
            "bufferView" : 5,
            "mimeType" : "image/png",
            "name" : "Image_1"
        }
    ],
    "accessors" : [
        {
            "bufferView" : 0,
            "componentType" : 5126,
            "count" : 2013,
            "max" : [
                0.2577263116836548,
                0.19623130559921265,
                0.019590778276324272
            ],
            "min" : [
                -0.2587113380432129,
                -0.16534286737442017,
                -0.4907894432544708
            ],
            "type" : "VEC3"
        },
        {
            "bufferView" : 1,
            "componentType" : 5126,
            "count" : 2013,
            "type" : "VEC3"
        },
        {
            "bufferView" : 2,
            "componentType" : 5126,
            "count" : 2013,
            "type" : "VEC2"
        },
        {
            "bufferView" : 3,
            "componentType" : 5123,
            "count" : 4536,
            "type" : "SCALAR"
        }
    ],
    "bufferViews" : [
        {
            "buffer" : 0,
            "byteLength" : 24156,
            "byteOffset" : 0
        },
        {
            "buffer" : 0,
            "byteLength" : 24156,
            "byteOffset" : 24156
        },
        {
            "buffer" : 0,
            "byteLength" : 16104,
            "byteOffset" : 48312
        },
        {
            "buffer" : 0,
            "byteLength" : 9072,
            "byteOffset" : 64416
        },
        {
            "buffer" : 0,
            "byteLength" : 119048,
            "byteOffset" : 73488
        },
        {
            "buffer" : 0,
            "byteLength" : 130985,
            "byteOffset" : 192536
        }
    ],
    "samplers" : [
        {
            "magFilter" : 9729,
            "minFilter" : 9987
        }
    ],
    "buffers" : [
        {
            "byteLength" : 323524,
            "uri" : "data:application/octet-stream;base64,"
        }
    ]
}
