{
    "asset" : {
        "generator" : "Khronos glTF Blender I/O v3.4.50",
        "version" : "2.0"
    },
    "scene" : 0,
    "scenes" : [
        {
            "name" : "Scene",
            "nodes" : [
                0,
                1,
                2,
                3,
                4
            ]
        }
    ],
    "nodes" : [
        {
            "mesh" : 0,
            "name" : "U-tube_L",
            "rotation" : [
                1,
                0,
                0,
                0
            ],
            "scale" : [
                0.024750322103500366,
                0.024750322103500366,
                0.024750322103500366
            ],
            "translation" : [
                -0.000724397599697113,
                0.3050529658794403,
                0
            ]
        },
        {
            "mesh" : 1,
            "name" : "U-tube_R",
            "rotation" : [
                0.9999971985816956,
                0.0023746786173433065,
                0,
                0
            ],
            "scale" : [
                0.024750322103500366,
                0.024750323966145515,
                0.024750325828790665
            ],
            "translation" : [
                -0.000724397599697113,
                0.3050529658794403,
                0
            ]
        },
        {
            "mesh" : 2,
            "name" : "U-tube_L_Level",
            "rotation" : [
                0,
                0,
                -0.9999971985816956,
                0.0023746786173433065
            ],
            "scale" : [
                0.022514168173074722,
                0.022514168173074722,
                0.022514166310429573
            ],
            "translation" : [
                -0.0006193965673446655,
                0.28294476866722107,
                0.08583887666463852
            ]
        },
        {
            "mesh" : 3,
            "name" : "Membrane",
            "rotation" : [
                0,
                0,
                -0.9999972581863403,
                0.00237467885017395
            ],
            "scale" : [
                0.11356956511735916,
                0.12340983748435974,
                0.023372957482933998
            ],
            "translation" : [
                0.0030069053173065186,
                -0.4805900454521179,
                0
            ]
        },
        {
            "mesh" : 4,
            "name" : "U-tube_R_Level",
            "rotation" : [
                0.0016791372327134013,
                -0.7071048021316528,
                -0.7071048021316528,
                0.0016791371162980795
            ],
            "scale" : [
                -0.022514168173074722,
                -0.022514166310429573,
                -0.022514166310429573
            ],
            "translation" : [
                -0.0009387210011482239,
                0.35017603635787964,
                -0.1454150676727295
            ]
        }
    ],
    "meshes" : [
        {
            "name" : "U-Tube.006",
            "primitives" : [
                {
                    "attributes" : {
                        "POSITION" : 0,
                        "TEXCOORD_0" : 1,
                        "NORMAL" : 2
                    },
                    "indices" : 3
                }
            ]
        },
        {
            "name" : "U-Tube.007",
            "primitives" : [
                {
                    "attributes" : {
                        "POSITION" : 4,
                        "TEXCOORD_0" : 5,
                        "NORMAL" : 6
                    },
                    "indices" : 7
                }
            ]
        },
        {
            "name" : "U-Tube.008",
            "primitives" : [
                {
                    "attributes" : {
                        "POSITION" : 8,
                        "TEXCOORD_0" : 9,
                        "NORMAL" : 10
                    },
                    "indices" : 11
                }
            ]
        },
        {
            "name" : "Sphere.001",
            "primitives" : [
                {
                    "attributes" : {
                        "POSITION" : 12,
                        "TEXCOORD_0" : 13,
                        "NORMAL" : 14
                    },
                    "indices" : 15
                }
            ]
        },
        {
            "name" : "U-Tube.009",
            "primitives" : [
                {
                    "attributes" : {
                        "POSITION" : 16,
                        "TEXCOORD_0" : 17,
                        "NORMAL" : 18
                    },
                    "indices" : 19
                }
            ]
        }
    ],
    "accessors" : [
        {
            "bufferView" : 0,
            "componentType" : 5126,
            "count" : 466,
            "max" : [
                5.763713836669922,
                36.62002944946289,
                0.06689453125
            ],
            "min" : [
                -5.836287498474121,
                -47.99662399291992,
                -42.591819763183594
            ],
            "type" : "VEC3"
        },
        {
            "bufferView" : 1,
            "componentType" : 5126,
            "count" : 466,
            "type" : "VEC2"
        },
        {
            "bufferView" : 2,
            "componentType" : 5126,
            "count" : 466,
            "type" : "VEC3"
        },
        {
            "bufferView" : 3,
            "componentType" : 5123,
            "count" : 2226,
            "type" : "SCALAR"
        },
        {
            "bufferView" : 4,
            "componentType" : 5126,
            "count" : 491,
            "max" : [
                5.806285381317139,
                36.62002944946289,
                42.59486770629883
            ],
            "min" : [
                -5.793715000152588,
                -47.99661636352539,
                0.06689453125
            ],
            "type" : "VEC3"
        },
        {
            "bufferView" : 5,
            "componentType" : 5126,
            "count" : 491,
            "type" : "VEC2"
        },
        {
            "bufferView" : 6,
            "componentType" : 5126,
            "count" : 491,
            "type" : "VEC3"
        },
        {
            "bufferView" : 7,
            "componentType" : 5123,
            "count" : 2385,
            "type" : "SCALAR"
        },
        {
            "bufferView" : 8,
            "componentType" : 5126,
            "count" : 383,
            "max" : [
                4.963713645935059,
                38.81006622314453,
                41.81443786621094
            ],
            "min" : [
                -5.036287307739258,
                -52.50299835205078,
                -3.587510108947754
            ],
            "type" : "VEC3"
        },
        {
            "bufferView" : 9,
            "componentType" : 5126,
            "count" : 383,
            "type" : "VEC2"
        },
        {
            "bufferView" : 10,
            "componentType" : 5126,
            "count" : 383,
            "type" : "VEC3"
        },
        {
            "bufferView" : 11,
            "componentType" : 5123,
            "count" : 1896,
            "type" : "SCALAR"
        },
        {
            "bufferView" : 12,
            "componentType" : 5126,
            "count" : 2868,
            "max" : [
                0.9999997019767761,
                1,
                0.9999993443489075
            ],
            "min" : [
                -0.9999990463256836,
                -1,
                -1
            ],
            "type" : "VEC3"
        },
        {
            "bufferView" : 13,
            "componentType" : 5126,
            "count" : 2868,
            "type" : "VEC2"
        },
        {
            "bufferView" : 14,
            "componentType" : 5126,
            "count" : 2868,
            "type" : "VEC3"
        },
        {
            "bufferView" : 15,
            "componentType" : 5123,
            "count" : 2880,
            "type" : "SCALAR"
        },
        {
            "bufferView" : 16,
            "componentType" : 5126,
            "count" : 334,
            "max" : [
                4.963713645935059,
                38.81006622314453,
                41.81443786621094
            ],
            "min" : [
                -5.036287307739258,
                -6.155702114105225,
                -49.53999710083008
            ],
            "type" : "VEC3"
        },
        {
            "bufferView" : 17,
            "componentType" : 5126,
            "count" : 334,
            "type" : "VEC2"
        },
        {
            "bufferView" : 18,
            "componentType" : 5126,
            "count" : 334,
            "type" : "VEC3"
        },
        {
            "bufferView" : 19,
            "componentType" : 5123,
            "count" : 1569,
            "type" : "SCALAR"
        }
    ],
    "bufferViews" : [
        {
            "buffer" : 0,
            "byteLength" : 5592,
            "byteOffset" : 0,
            "target" : 34962
        },
        {
            "buffer" : 0,
            "byteLength" : 3728,
            "byteOffset" : 5592,
            "target" : 34962
        },
        {
            "buffer" : 0,
            "byteLength" : 5592,
            "byteOffset" : 9320,
            "target" : 34962
        },
        {
            "buffer" : 0,
            "byteLength" : 4452,
            "byteOffset" : 14912,
            "target" : 34963
        },
        {
            "buffer" : 0,
            "byteLength" : 5892,
            "byteOffset" : 19364,
            "target" : 34962
        },
        {
            "buffer" : 0,
            "byteLength" : 3928,
            "byteOffset" : 25256,
            "target" : 34962
        },
        {
            "buffer" : 0,
            "byteLength" : 5892,
            "byteOffset" : 29184,
            "target" : 34962
        },
        {
            "buffer" : 0,
            "byteLength" : 4770,
            "byteOffset" : 35076,
            "target" : 34963
        },
        {
            "buffer" : 0,
            "byteLength" : 4596,
            "byteOffset" : 39848,
            "target" : 34962
        },
        {
            "buffer" : 0,
            "byteLength" : 3064,
            "byteOffset" : 44444,
            "target" : 34962
        },
        {
            "buffer" : 0,
            "byteLength" : 4596,
            "byteOffset" : 47508,
            "target" : 34962
        },
        {
            "buffer" : 0,
            "byteLength" : 3792,
            "byteOffset" : 52104,
            "target" : 34963
        },
        {
            "buffer" : 0,
            "byteLength" : 34416,
            "byteOffset" : 55896,
            "target" : 34962
        },
        {
            "buffer" : 0,
            "byteLength" : 22944,
            "byteOffset" : 90312,
            "target" : 34962
        },
        {
            "buffer" : 0,
            "byteLength" : 34416,
            "byteOffset" : 113256,
            "target" : 34962
        },
        {
            "buffer" : 0,
            "byteLength" : 5760,
            "byteOffset" : 147672,
            "target" : 34963
        },
        {
            "buffer" : 0,
            "byteLength" : 4008,
            "byteOffset" : 153432,
            "target" : 34962
        },
        {
            "buffer" : 0,
            "byteLength" : 2672,
            "byteOffset" : 157440,
            "target" : 34962
        },
        {
            "buffer" : 0,
            "byteLength" : 4008,
            "byteOffset" : 160112,
            "target" : 34962
        },
        {
            "buffer" : 0,
            "byteLength" : 3138,
            "byteOffset" : 164120,
            "target" : 34963
        }
    ],
    "buffers" : [
        {
            "byteLength" : 167260,
            "uri" : "data:application/octet-stream;base64,"
        }
    ]
}
