{
    "asset" : {
        "generator" : "Khronos glTF Blender I/O v3.3.27",
        "version" : "2.0"
    },
    "scene" : 0,
    "scenes" : [
        {
            "name" : "Scene",
            "nodes" : [
                0,
                1,
                2,
                3,
                4
            ]
        }
    ],
    "nodes" : [
        {
            "mesh" : 0,
            "name" : "Top50mL",
            "rotation" : [
                0.7071068286895752,
                0,
                0,
                0.7071068286895752
            ],
            "translation" : [
                0,
                18.05295181274414,
                22.327533721923828
            ]
        },
        {
            "mesh" : 1,
            "name" : "Flask50ml",
            "rotation" : [
                0.7071068286895752,
                0,
                0,
                0.7071068286895752
            ],
            "translation" : [
                0,
                7.24220085144043,
                22.327537536621094
            ]
        },
        {
            "mesh" : 2,
            "name" : "Label50",
            "rotation" : [
                0.5,
                0.5,
                -0.5,
                0.5
            ],
            "translation" : [
                3.639749050140381,
                2.582993268966675,
                22.30703353881836
            ]
        },
        {
            "mesh" : 3,
            "name" : "WaterLevel.001",
            "rotation" : [
                0.7071068286895752,
                0,
                0,
                0.7071068286895752
            ],
            "scale" : [
                0.8999999761581421,
                0.8999999761581421,
                0.8999999761581421
            ],
            "translation" : [
                0,
                6.849382400512695,
                22.32021141052246
            ]
        },
        {
            "mesh" : 4,
            "name" : "MaterialLevel",
            "rotation" : [
                0.7071068286895752,
                0,
                0,
                0.7071068286895752
            ],
            "scale" : [
                0.8999999761581421,
                0.8999999761581421,
                0.8999999761581421
            ],
            "translation" : [
                0,
                6.849382400512695,
                22.32021141052246
            ]
        }
    ],
    "materials" : [
        {
            "doubleSided" : true,
            "name" : "Material.001",
            "pbrMetallicRoughness" : {
                "baseColorFactor" : [
                    0,
                    0,
                    0,
                    1
                ],
                "metallicFactor" : 0,
                "roughnessFactor" : 0.5
            }
        }
    ],
    "meshes" : [
        {
            "name" : "Mesh.009",
            "primitives" : [
                {
                    "attributes" : {
                        "POSITION" : 0,
                        "NORMAL" : 1,
                        "TEXCOORD_0" : 2
                    },
                    "indices" : 3
                }
            ]
        },
        {
            "name" : "Mesh.010",
            "primitives" : [
                {
                    "attributes" : {
                        "POSITION" : 4,
                        "NORMAL" : 5,
                        "TEXCOORD_0" : 6
                    },
                    "indices" : 7
                }
            ]
        },
        {
            "name" : "Text",
            "primitives" : [
                {
                    "attributes" : {
                        "POSITION" : 8,
                        "NORMAL" : 9,
                        "TEXCOORD_0" : 10
                    },
                    "indices" : 11,
                    "material" : 0
                }
            ]
        },
        {
            "name" : "Mesh.001",
            "primitives" : [
                {
                    "attributes" : {
                        "POSITION" : 12,
                        "NORMAL" : 13,
                        "TEXCOORD_0" : 14
                    },
                    "indices" : 15
                }
            ]
        },
        {
            "name" : "Mesh.005",
            "primitives" : [
                {
                    "attributes" : {
                        "POSITION" : 16,
                        "NORMAL" : 17,
                        "TEXCOORD_0" : 18
                    },
                    "indices" : 15
                }
            ]
        }
    ],
    "accessors" : [
        {
            "bufferView" : 0,
            "componentType" : 5126,
            "count" : 773,
            "max" : [
                1.5188616514205933,
                1.5188655853271484,
                1.7695159912109375
            ],
            "min" : [
                -1.518863320350647,
                -1.5188608169555664,
                -0.592315673828125
            ],
            "type" : "VEC3"
        },
        {
            "bufferView" : 1,
            "componentType" : 5126,
            "count" : 773,
            "type" : "VEC3"
        },
        {
            "bufferView" : 2,
            "componentType" : 5126,
            "count" : 773,
            "type" : "VEC2"
        },
        {
            "bufferView" : 3,
            "componentType" : 5123,
            "count" : 3180,
            "type" : "SCALAR"
        },
        {
            "bufferView" : 4,
            "componentType" : 5126,
            "count" : 1003,
            "max" : [
                3.598794460296631,
                3.59879207611084,
                7.054222583770752
            ],
            "min" : [
                -3.5987956523895264,
                -3.5988001823425293,
                -9.852106094360352
            ],
            "type" : "VEC3"
        },
        {
            "bufferView" : 5,
            "componentType" : 5126,
            "count" : 1003,
            "type" : "VEC3"
        },
        {
            "bufferView" : 6,
            "componentType" : 5126,
            "count" : 1003,
            "type" : "VEC2"
        },
        {
            "bufferView" : 7,
            "componentType" : 5123,
            "count" : 5040,
            "type" : "SCALAR"
        },
        {
            "bufferView" : 8,
            "componentType" : 5126,
            "count" : 2238,
            "max" : [
                1.2921617031097412,
                0.03368020057678223,
                1.20170259475708
            ],
            "min" : [
                -1.3005915880203247,
                -0.24978327751159668,
                -0.6365423202514648
            ],
            "type" : "VEC3"
        },
        {
            "bufferView" : 9,
            "componentType" : 5126,
            "count" : 2238,
            "type" : "VEC3"
        },
        {
            "bufferView" : 10,
            "componentType" : 5126,
            "count" : 2238,
            "type" : "VEC2"
        },
        {
            "bufferView" : 11,
            "componentType" : 5123,
            "count" : 2238,
            "type" : "SCALAR"
        },
        {
            "bufferView" : 12,
            "componentType" : 5126,
            "count" : 730,
            "max" : [
                3.598794460296631,
                3.59879207611084,
                7.054222583770752
            ],
            "min" : [
                -3.5987956523895264,
                -3.5988001823425293,
                -6.006261825561523
            ],
            "type" : "VEC3"
        },
        {
            "bufferView" : 13,
            "componentType" : 5126,
            "count" : 730,
            "type" : "VEC3"
        },
        {
            "bufferView" : 14,
            "componentType" : 5126,
            "count" : 730,
            "type" : "VEC2"
        },
        {
            "bufferView" : 15,
            "componentType" : 5123,
            "count" : 3720,
            "type" : "SCALAR"
        },
        {
            "bufferView" : 16,
            "componentType" : 5126,
            "count" : 730,
            "max" : [
                3.598794460296631,
                3.59879207611084,
                7.054222583770752
            ],
            "min" : [
                -3.5987956523895264,
                -3.5988001823425293,
                -6.006261825561523
            ],
            "type" : "VEC3"
        },
        {
            "bufferView" : 17,
            "componentType" : 5126,
            "count" : 730,
            "type" : "VEC3"
        },
        {
            "bufferView" : 18,
            "componentType" : 5126,
            "count" : 730,
            "type" : "VEC2"
        }
    ],
    "bufferViews" : [
        {
            "buffer" : 0,
            "byteLength" : 9276,
            "byteOffset" : 0,
            "target" : 34962
        },
        {
            "buffer" : 0,
            "byteLength" : 9276,
            "byteOffset" : 9276,
            "target" : 34962
        },
        {
            "buffer" : 0,
            "byteLength" : 6184,
            "byteOffset" : 18552,
            "target" : 34962
        },
        {
            "buffer" : 0,
            "byteLength" : 6360,
            "byteOffset" : 24736,
            "target" : 34963
        },
        {
            "buffer" : 0,
            "byteLength" : 12036,
            "byteOffset" : 31096,
            "target" : 34962
        },
        {
            "buffer" : 0,
            "byteLength" : 12036,
            "byteOffset" : 43132,
            "target" : 34962
        },
        {
            "buffer" : 0,
            "byteLength" : 8024,
            "byteOffset" : 55168,
            "target" : 34962
        },
        {
            "buffer" : 0,
            "byteLength" : 10080,
            "byteOffset" : 63192,
            "target" : 34963
        },
        {
            "buffer" : 0,
            "byteLength" : 26856,
            "byteOffset" : 73272,
            "target" : 34962
        },
        {
            "buffer" : 0,
            "byteLength" : 26856,
            "byteOffset" : 100128,
            "target" : 34962
        },
        {
            "buffer" : 0,
            "byteLength" : 17904,
            "byteOffset" : 126984,
            "target" : 34962
        },
        {
            "buffer" : 0,
            "byteLength" : 4476,
            "byteOffset" : 144888,
            "target" : 34963
        },
        {
            "buffer" : 0,
            "byteLength" : 8760,
            "byteOffset" : 149364,
            "target" : 34962
        },
        {
            "buffer" : 0,
            "byteLength" : 8760,
            "byteOffset" : 158124,
            "target" : 34962
        },
        {
            "buffer" : 0,
            "byteLength" : 5840,
            "byteOffset" : 166884,
            "target" : 34962
        },
        {
            "buffer" : 0,
            "byteLength" : 7440,
            "byteOffset" : 172724,
            "target" : 34963
        },
        {
            "buffer" : 0,
            "byteLength" : 8760,
            "byteOffset" : 180164,
            "target" : 34962
        },
        {
            "buffer" : 0,
            "byteLength" : 8760,
            "byteOffset" : 188924,
            "target" : 34962
        },
        {
            "buffer" : 0,
            "byteLength" : 5840,
            "byteOffset" : 197684,
            "target" : 34962
        }
    ],
    "buffers" : [
        {
            "byteLength" : 203524,
            "uri" : "data:application/octet-stream;base64,"
        }
    ]
}
