{
    "asset" : {
        "generator" : "Khronos glTF Blender I/O v3.3.27",
        "version" : "2.0"
    },
    "scene" : 0,
    "scenes" : [
        {
            "name" : "Scene",
            "nodes" : [
                0,
                1,
                2,
                3,
                4
            ]
        }
    ],
    "nodes" : [
        {
            "mesh" : 0,
            "name" : "Top100ml",
            "rotation" : [
                0.7071068286895752,
                0,
                0,
                0.7071068286895752
            ],
            "translation" : [
                0,
                24.40801239013672,
                0
            ]
        },
        {
            "mesh" : 1,
            "name" : "Flask100ml",
            "rotation" : [
                0.7071068286895752,
                0,
                0,
                0.7071068286895752
            ]
        },
        {
            "mesh" : 2,
            "name" : "Label100",
            "rotation" : [
                0.5,
                0.5,
                -0.5,
                0.5
            ],
            "scale" : [
                1.2129483222961426,
                1.2129483222961426,
                1.2129483222961426
            ],
            "translation" : [
                5.012105941772461,
                3.026942491531372,
                0.2325972020626068
            ]
        },
        {
            "mesh" : 3,
            "name" : "WaterLevel",
            "rotation" : [
                0.7071068286895752,
                0,
                0,
                0.7071068286895752
            ],
            "scale" : [
                0.8999999761581421,
                0.8999999761581421,
                0.8999999761581421
            ],
            "translation" : [
                0,
                0.4887657165527344,
                0.008129119873046875
            ]
        },
        {
            "mesh" : 4,
            "name" : "MaterialLevel1",
            "rotation" : [
                0.7071068286895752,
                0,
                0,
                0.7071068286895752
            ],
            "scale" : [
                0.8999999761581421,
                0.8999999761581421,
                0.8999999761581421
            ],
            "translation" : [
                0,
                0.4887657165527344,
                0.008129119873046875
            ]
        }
    ],
    "materials" : [
        {
            "doubleSided" : true,
            "name" : "Material.001",
            "pbrMetallicRoughness" : {
                "baseColorFactor" : [
                    0,
                    0,
                    0,
                    1
                ],
                "metallicFactor" : 0,
                "roughnessFactor" : 0.5
            }
        }
    ],
    "meshes" : [
        {
            "name" : "Mesh.006",
            "primitives" : [
                {
                    "attributes" : {
                        "POSITION" : 0,
                        "NORMAL" : 1,
                        "TEXCOORD_0" : 2
                    },
                    "indices" : 3
                }
            ]
        },
        {
            "name" : "Mesh.007",
            "primitives" : [
                {
                    "attributes" : {
                        "POSITION" : 4,
                        "NORMAL" : 5,
                        "TEXCOORD_0" : 6
                    },
                    "indices" : 7
                }
            ]
        },
        {
            "name" : "Text.002",
            "primitives" : [
                {
                    "attributes" : {
                        "POSITION" : 8,
                        "NORMAL" : 9,
                        "TEXCOORD_0" : 10
                    },
                    "indices" : 11,
                    "material" : 0
                }
            ]
        },
        {
            "name" : "Mesh.008",
            "primitives" : [
                {
                    "attributes" : {
                        "POSITION" : 12,
                        "NORMAL" : 13,
                        "TEXCOORD_0" : 14
                    },
                    "indices" : 15
                }
            ]
        },
        {
            "name" : "Mesh.014",
            "primitives" : [
                {
                    "attributes" : {
                        "POSITION" : 16,
                        "NORMAL" : 17,
                        "TEXCOORD_0" : 18
                    },
                    "indices" : 15
                }
            ]
        }
    ],
    "accessors" : [
        {
            "bufferView" : 0,
            "componentType" : 5126,
            "count" : 773,
            "max" : [
                2.06514573097229,
                2.0651464462280273,
                2.405902862548828
            ],
            "min" : [
                -2.065147876739502,
                -2.065147876739502,
                -0.8054008483886719
            ],
            "type" : "VEC3"
        },
        {
            "bufferView" : 1,
            "componentType" : 5126,
            "count" : 773,
            "type" : "VEC3"
        },
        {
            "bufferView" : 2,
            "componentType" : 5126,
            "count" : 773,
            "type" : "VEC2"
        },
        {
            "bufferView" : 3,
            "componentType" : 5123,
            "count" : 3180,
            "type" : "SCALAR"
        },
        {
            "bufferView" : 4,
            "componentType" : 5126,
            "count" : 1003,
            "max" : [
                4.893161296844482,
                4.893161296844482,
                0
            ],
            "min" : [
                -4.893162727355957,
                -4.893165111541748,
                -22.98697280883789
            ],
            "type" : "VEC3"
        },
        {
            "bufferView" : 5,
            "componentType" : 5126,
            "count" : 1003,
            "type" : "VEC3"
        },
        {
            "bufferView" : 6,
            "componentType" : 5126,
            "count" : 1003,
            "type" : "VEC2"
        },
        {
            "bufferView" : 7,
            "componentType" : 5123,
            "count" : 5040,
            "type" : "SCALAR"
        },
        {
            "bufferView" : 8,
            "componentType" : 5126,
            "count" : 2523,
            "max" : [
                1.3737363815307617,
                -0.03311729431152344,
                1.1925243139266968
            ],
            "min" : [
                -1.241635799407959,
                -0.3400840759277344,
                -0.6564338207244873
            ],
            "type" : "VEC3"
        },
        {
            "bufferView" : 9,
            "componentType" : 5126,
            "count" : 2523,
            "type" : "VEC3"
        },
        {
            "bufferView" : 10,
            "componentType" : 5126,
            "count" : 2523,
            "type" : "VEC2"
        },
        {
            "bufferView" : 11,
            "componentType" : 5123,
            "count" : 2523,
            "type" : "SCALAR"
        },
        {
            "bufferView" : 12,
            "componentType" : 5126,
            "count" : 730,
            "max" : [
                4.893161296844482,
                4.893161296844482,
                0
            ],
            "min" : [
                -4.893162727355957,
                -4.893165111541748,
                -13.61802864074707
            ],
            "type" : "VEC3"
        },
        {
            "bufferView" : 13,
            "componentType" : 5126,
            "count" : 730,
            "type" : "VEC3"
        },
        {
            "bufferView" : 14,
            "componentType" : 5126,
            "count" : 730,
            "type" : "VEC2"
        },
        {
            "bufferView" : 15,
            "componentType" : 5123,
            "count" : 3720,
            "type" : "SCALAR"
        },
        {
            "bufferView" : 16,
            "componentType" : 5126,
            "count" : 730,
            "max" : [
                4.893161296844482,
                4.893161296844482,
                0
            ],
            "min" : [
                -4.893162727355957,
                -4.893165111541748,
                -13.61802864074707
            ],
            "type" : "VEC3"
        },
        {
            "bufferView" : 17,
            "componentType" : 5126,
            "count" : 730,
            "type" : "VEC3"
        },
        {
            "bufferView" : 18,
            "componentType" : 5126,
            "count" : 730,
            "type" : "VEC2"
        }
    ],
    "bufferViews" : [
        {
            "buffer" : 0,
            "byteLength" : 9276,
            "byteOffset" : 0,
            "target" : 34962
        },
        {
            "buffer" : 0,
            "byteLength" : 9276,
            "byteOffset" : 9276,
            "target" : 34962
        },
        {
            "buffer" : 0,
            "byteLength" : 6184,
            "byteOffset" : 18552,
            "target" : 34962
        },
        {
            "buffer" : 0,
            "byteLength" : 6360,
            "byteOffset" : 24736,
            "target" : 34963
        },
        {
            "buffer" : 0,
            "byteLength" : 12036,
            "byteOffset" : 31096,
            "target" : 34962
        },
        {
            "buffer" : 0,
            "byteLength" : 12036,
            "byteOffset" : 43132,
            "target" : 34962
        },
        {
            "buffer" : 0,
            "byteLength" : 8024,
            "byteOffset" : 55168,
            "target" : 34962
        },
        {
            "buffer" : 0,
            "byteLength" : 10080,
            "byteOffset" : 63192,
            "target" : 34963
        },
        {
            "buffer" : 0,
            "byteLength" : 30276,
            "byteOffset" : 73272,
            "target" : 34962
        },
        {
            "buffer" : 0,
            "byteLength" : 30276,
            "byteOffset" : 103548,
            "target" : 34962
        },
        {
            "buffer" : 0,
            "byteLength" : 20184,
            "byteOffset" : 133824,
            "target" : 34962
        },
        {
            "buffer" : 0,
            "byteLength" : 5046,
            "byteOffset" : 154008,
            "target" : 34963
        },
        {
            "buffer" : 0,
            "byteLength" : 8760,
            "byteOffset" : 159056,
            "target" : 34962
        },
        {
            "buffer" : 0,
            "byteLength" : 8760,
            "byteOffset" : 167816,
            "target" : 34962
        },
        {
            "buffer" : 0,
            "byteLength" : 5840,
            "byteOffset" : 176576,
            "target" : 34962
        },
        {
            "buffer" : 0,
            "byteLength" : 7440,
            "byteOffset" : 182416,
            "target" : 34963
        },
        {
            "buffer" : 0,
            "byteLength" : 8760,
            "byteOffset" : 189856,
            "target" : 34962
        },
        {
            "buffer" : 0,
            "byteLength" : 8760,
            "byteOffset" : 198616,
            "target" : 34962
        },
        {
            "buffer" : 0,
            "byteLength" : 5840,
            "byteOffset" : 207376,
            "target" : 34962
        }
    ],
    "buffers" : [
        {
            "byteLength" : 213216,
            "uri" : "data:application/octet-stream;base64,"
        }
    ]
}
