{
    "asset" : {
        "generator" : "Khronos glTF Blender I/O v3.3.27",
        "version" : "2.0"
    },
    "scene" : 0,
    "scenes" : [
        {
            "name" : "Scene",
            "nodes" : [
                0,
                1,
                2,
                3,
                4
            ]
        }
    ],
    "nodes" : [
        {
            "mesh" : 0,
            "name" : "Flask250mL",
            "rotation" : [
                0.7071068286895752,
                0,
                0,
                0.7071068286895752
            ],
            "translation" : [
                0,
                37.748477935791016,
                -22.472476959228516
            ]
        },
        {
            "mesh" : 1,
            "name" : "Top250ml",
            "rotation" : [
                0.7071068286895752,
                0,
                0,
                0.7071068286895752
            ],
            "translation" : [
                0,
                14.930103302001953,
                -22.47248077392578
            ]
        },
        {
            "mesh" : 2,
            "name" : "Label250",
            "rotation" : [
                0.5,
                0.5,
                -0.5,
                0.5
            ],
            "scale" : [
                1.75118088722229,
                1.75118088722229,
                1.75118088722229
            ],
            "translation" : [
                7.69304084777832,
                5.6333842277526855,
                -22.47205352783203
            ]
        },
        {
            "mesh" : 3,
            "name" : "WaterLevel.002",
            "rotation" : [
                0.7071068286895752,
                0,
                0,
                0.7071068286895752
            ],
            "scale" : [
                0.8999999761581421,
                0.8999999761581421,
                0.8999999761581421
            ],
            "translation" : [
                0,
                14.22856616973877,
                -22.484182357788086
            ]
        },
        {
            "mesh" : 4,
            "name" : "MaterialLevel2",
            "rotation" : [
                0.7071068286895752,
                0,
                0,
                0.7071068286895752
            ],
            "scale" : [
                0.8999999761581421,
                0.8999999761581421,
                0.8999999761581421
            ],
            "translation" : [
                0,
                14.22856616973877,
                -22.484182357788086
            ]
        }
    ],
    "materials" : [
        {
            "doubleSided" : true,
            "name" : "Material.001",
            "pbrMetallicRoughness" : {
                "baseColorFactor" : [
                    0,
                    0,
                    0,
                    1
                ],
                "metallicFactor" : 0,
                "roughnessFactor" : 0.5
            }
        }
    ],
    "meshes" : [
        {
            "name" : "Mesh.012",
            "primitives" : [
                {
                    "attributes" : {
                        "POSITION" : 0,
                        "NORMAL" : 1,
                        "TEXCOORD_0" : 2
                    },
                    "indices" : 3
                }
            ]
        },
        {
            "name" : "Mesh.013",
            "primitives" : [
                {
                    "attributes" : {
                        "POSITION" : 4,
                        "NORMAL" : 5,
                        "TEXCOORD_0" : 6
                    },
                    "indices" : 7
                }
            ]
        },
        {
            "name" : "Text.001",
            "primitives" : [
                {
                    "attributes" : {
                        "POSITION" : 8,
                        "NORMAL" : 9,
                        "TEXCOORD_0" : 10
                    },
                    "indices" : 11,
                    "material" : 0
                }
            ]
        },
        {
            "name" : "Mesh.011",
            "primitives" : [
                {
                    "attributes" : {
                        "POSITION" : 12,
                        "NORMAL" : 13,
                        "TEXCOORD_0" : 14
                    },
                    "indices" : 15
                }
            ]
        },
        {
            "name" : "Mesh.015",
            "primitives" : [
                {
                    "attributes" : {
                        "POSITION" : 16,
                        "NORMAL" : 17,
                        "TEXCOORD_0" : 18
                    },
                    "indices" : 15
                }
            ]
        }
    ],
    "accessors" : [
        {
            "bufferView" : 0,
            "componentType" : 5126,
            "count" : 773,
            "max" : [
                3.185128688812256,
                3.1851491928100586,
                3.710674285888672
            ],
            "min" : [
                -3.185131549835205,
                -3.185112953186035,
                -1.2422027587890625
            ],
            "type" : "VEC3"
        },
        {
            "bufferView" : 1,
            "componentType" : 5126,
            "count" : 773,
            "type" : "VEC3"
        },
        {
            "bufferView" : 2,
            "componentType" : 5126,
            "count" : 773,
            "type" : "VEC2"
        },
        {
            "bufferView" : 3,
            "componentType" : 5123,
            "count" : 3180,
            "type" : "SCALAR"
        },
        {
            "bufferView" : 4,
            "componentType" : 5126,
            "count" : 1003,
            "max" : [
                7.54685115814209,
                7.546874523162842,
                14.79306697845459
            ],
            "min" : [
                -7.546853542327881,
                -7.546834945678711,
                -20.660343170166016
            ],
            "type" : "VEC3"
        },
        {
            "bufferView" : 5,
            "componentType" : 5126,
            "count" : 1003,
            "type" : "VEC3"
        },
        {
            "bufferView" : 6,
            "componentType" : 5126,
            "count" : 1003,
            "type" : "VEC2"
        },
        {
            "bufferView" : 7,
            "componentType" : 5123,
            "count" : 5040,
            "type" : "SCALAR"
        },
        {
            "bufferView" : 8,
            "componentType" : 5126,
            "count" : 2082,
            "max" : [
                1.344961404800415,
                -0.04034233093261719,
                1.2186613082885742
            ],
            "min" : [
                -1.3445786237716675,
                -0.43512892723083496,
                -0.5903053283691406
            ],
            "type" : "VEC3"
        },
        {
            "bufferView" : 9,
            "componentType" : 5126,
            "count" : 2082,
            "type" : "VEC3"
        },
        {
            "bufferView" : 10,
            "componentType" : 5126,
            "count" : 2082,
            "type" : "VEC2"
        },
        {
            "bufferView" : 11,
            "componentType" : 5123,
            "count" : 2082,
            "type" : "SCALAR"
        },
        {
            "bufferView" : 12,
            "componentType" : 5126,
            "count" : 730,
            "max" : [
                7.54685115814209,
                7.546874523162842,
                14.79306697845459
            ],
            "min" : [
                -7.546853542327881,
                -7.546834945678711,
                -6.567715644836426
            ],
            "type" : "VEC3"
        },
        {
            "bufferView" : 13,
            "componentType" : 5126,
            "count" : 730,
            "type" : "VEC3"
        },
        {
            "bufferView" : 14,
            "componentType" : 5126,
            "count" : 730,
            "type" : "VEC2"
        },
        {
            "bufferView" : 15,
            "componentType" : 5123,
            "count" : 3720,
            "type" : "SCALAR"
        },
        {
            "bufferView" : 16,
            "componentType" : 5126,
            "count" : 730,
            "max" : [
                7.54685115814209,
                7.546874523162842,
                14.79306697845459
            ],
            "min" : [
                -7.546853542327881,
                -7.546834945678711,
                -6.567715644836426
            ],
            "type" : "VEC3"
        },
        {
            "bufferView" : 17,
            "componentType" : 5126,
            "count" : 730,
            "type" : "VEC3"
        },
        {
            "bufferView" : 18,
            "componentType" : 5126,
            "count" : 730,
            "type" : "VEC2"
        }
    ],
    "bufferViews" : [
        {
            "buffer" : 0,
            "byteLength" : 9276,
            "byteOffset" : 0,
            "target" : 34962
        },
        {
            "buffer" : 0,
            "byteLength" : 9276,
            "byteOffset" : 9276,
            "target" : 34962
        },
        {
            "buffer" : 0,
            "byteLength" : 6184,
            "byteOffset" : 18552,
            "target" : 34962
        },
        {
            "buffer" : 0,
            "byteLength" : 6360,
            "byteOffset" : 24736,
            "target" : 34963
        },
        {
            "buffer" : 0,
            "byteLength" : 12036,
            "byteOffset" : 31096,
            "target" : 34962
        },
        {
            "buffer" : 0,
            "byteLength" : 12036,
            "byteOffset" : 43132,
            "target" : 34962
        },
        {
            "buffer" : 0,
            "byteLength" : 8024,
            "byteOffset" : 55168,
            "target" : 34962
        },
        {
            "buffer" : 0,
            "byteLength" : 10080,
            "byteOffset" : 63192,
            "target" : 34963
        },
        {
            "buffer" : 0,
            "byteLength" : 24984,
            "byteOffset" : 73272,
            "target" : 34962
        },
        {
            "buffer" : 0,
            "byteLength" : 24984,
            "byteOffset" : 98256,
            "target" : 34962
        },
        {
            "buffer" : 0,
            "byteLength" : 16656,
            "byteOffset" : 123240,
            "target" : 34962
        },
        {
            "buffer" : 0,
            "byteLength" : 4164,
            "byteOffset" : 139896,
            "target" : 34963
        },
        {
            "buffer" : 0,
            "byteLength" : 8760,
            "byteOffset" : 144060,
            "target" : 34962
        },
        {
            "buffer" : 0,
            "byteLength" : 8760,
            "byteOffset" : 152820,
            "target" : 34962
        },
        {
            "buffer" : 0,
            "byteLength" : 5840,
            "byteOffset" : 161580,
            "target" : 34962
        },
        {
            "buffer" : 0,
            "byteLength" : 7440,
            "byteOffset" : 167420,
            "target" : 34963
        },
        {
            "buffer" : 0,
            "byteLength" : 8760,
            "byteOffset" : 174860,
            "target" : 34962
        },
        {
            "buffer" : 0,
            "byteLength" : 8760,
            "byteOffset" : 183620,
            "target" : 34962
        },
        {
            "buffer" : 0,
            "byteLength" : 5840,
            "byteOffset" : 192380,
            "target" : 34962
        }
    ],
    "buffers" : [
        {
            "byteLength" : 198220,
            "uri" : "data:application/octet-stream;base64,"
        }
    ]
}
